<svg width="72.000000" height="65.000000" viewBox="0 0 72 65" fill="none" xmlns="http://www.w3.org/2000/svg" xmlns:xlink="http://www.w3.org/1999/xlink">
	<desc>
			Created with Pixso.
	</desc>
	<defs>
		<clipPath id="clip1_44">
			<rect id="Arrow 13" rx="0.000000" width="71.165215" height="64.165215" transform="translate(0.417391 0.417391)" fill="white" fill-opacity="0"/>
		</clipPath>
	</defs>
	<g clip-path="url(#clip1_44)">
		<path id="Arrow 13" d="M0.2 58.9C2.18 59.37 4.17 59.84 6.52 60.38C6.21 59.37 6.03 58.66 5.72 57.96C-0.36 43.02 1.56 27.07 10.86 14.94C16.88 7.2 24.32 3.21 32.62 1.02C41.92 -1.4 50.79 0.63 59.35 5.32C63.75 7.75 67.16 11.74 70.07 16.43C70.82 17.68 71.5 18.93 72 20.65C71.37 20.18 70.63 19.79 70.26 19.09C60.65 2.27 37.89 -1.71 21.46 9.31C15.02 13.61 10.18 19.95 7.27 28.4C3.86 38.33 5.28 51.39 10.74 59.52C11.85 56 10.86 51.47 14.02 48.65C13.9 53.66 13.84 58.19 13.71 62.65C13.65 64.14 13.03 65.31 11.92 64.92C8.07 63.67 4.29 62.26 0.57 60.77C0.32 60.7 0.2 59.99 0.01 59.6C-0.05 59.44 0.07 59.13 0.2 58.9Z" fill="#505050" fill-opacity="1.000000" fill-rule="nonzero"/>
	</g>
</svg>
