<svg width="127.353638" height="51.550781" viewBox="0 0 127.354 51.5508" fill="none" xmlns="http://www.w3.org/2000/svg" xmlns:xlink="http://www.w3.org/1999/xlink">
	<desc>
			Created with Pixso.
	</desc>
	<defs>
		<filter id="filter_1_46_dd" x="0.000000" y="0.000000" width="127.353638" height="51.550781" filterUnits="userSpaceOnUse" color-interpolation-filters="sRGB">
			<feFlood flood-opacity="0" result="BackgroundImageFix"/>
			<feColorMatrix in="SourceAlpha" type="matrix" values="0 0 0 0 0 0 0 0 0 0 0 0 0 0 0 0 0 0 127 0" result="hardAlpha"/>
			<feOffset dx="0" dy="4"/>
			<feGaussianBlur stdDeviation="1.33333"/>
			<feComposite in2="hardAlpha" operator="out" k2="-1" k3="1"/>
			<feColorMatrix type="matrix" values="0 0 0 0 0 0 0 0 0 0 0 0 0 0 0 0 0 0 0.25 0"/>
			<feBlend mode="normal" in2="BackgroundImageFix" result="effect_dropShadow_1"/>
			<feBlend mode="normal" in="SourceGraphic" in2="effect_dropShadow_1" result="shape"/>
		</filter>
		<clipPath id="clip1_46">
			<rect id="Arrow 15" rx="0.000000" width="117.756966" height="16.183056" transform="translate(4.417391 27.396639) rotate(-13.149754)" fill="white" fill-opacity="0"/>
		</clipPath>
	</defs>
	<g filter="url(#filter_1_46_dd)">
		<g clip-path="url(#clip1_46)">
			<path id="Arrow 14" d="M18.11 36.22C26.43 35.1 34.18 34.01 41.95 33.02C42.52 32.97 43.09 33.39 44.5 33.87C41.01 35.05 38.32 36.14 35.55 36.87C28.23 38.77 20.98 40.46 13.61 42.18C12.72 42.39 11.85 42.68 10.92 42.72C7.92 42.97 6.57 41.74 7.67 39.39C8.23 38.26 8.92 37.19 9.74 36.18C12.85 32.36 16.09 28.6 19.33 24.85C19.88 24.17 20.82 23.68 22.02 22.76C23.27 27.11 17.86 29.64 17.44 33.38C18.4 32.97 19.28 32.68 20.02 32.32C48.65 18.91 78.82 12.58 110.17 11.81C113.43 11.68 116.67 11.92 119.88 12.08C121.54 12.15 123.1 12.78 122.55 14.46C122.12 16.1 120.55 16.47 118.63 16.28C97.05 14.05 75.67 18.23 54.31 23.49C43.17 26.18 32.46 29.69 22.1 34.2C20.82 34.77 19.57 35.43 18.11 36.22Z" fill="#505050" fill-opacity="1.000000" fill-rule="nonzero"/>
		</g>
	</g>
</svg>
