<svg width="73.782242" height="76.703369" viewBox="0 0 73.7822 76.7034" fill="none" xmlns="http://www.w3.org/2000/svg" xmlns:xlink="http://www.w3.org/1999/xlink">
	<desc>
			Created with Pixso.
	</desc>
	<defs/>
	<path id="Vector" d="M40.27 38.53C46.15 45.04 51.51 51.57 55.72 56.95L58.66 60.7L61.13 63.98C62.68 65.98 63.91 67.72 64.99 69.13L66.51 71.1C65.83 70.71 65.15 70.32 64.48 69.98C63.19 69.3 61.87 68.71 60.51 68.21C58.24 67.34 55.89 66.73 53.51 66.39C49.47 65.86 47.02 66.37 47.04 66.87C47.07 68.01 56.76 68.54 67.22 75.78C68.12 76.36 69.14 76.68 70.17 76.7C70.82 76.67 71.45 76.45 71.97 76.05C72.47 75.65 72.86 75.12 73.12 74.5C73.49 73.57 73.69 72.56 73.7 71.53C73.73 70.68 73.75 69.95 73.77 69.17C73.8 66.15 73.76 63.41 73.57 61.12C73.27 56.52 72.71 53.68 72.27 53.68C71.84 53.68 71.55 56.44 71.25 60.94L70.74 68.78C70.68 69.48 70.65 70.27 70.58 70.96C69.93 69.8 69.06 68.38 67.81 66.56C66.8 65.05 65.6 63.24 64.07 61.16L61.6 57.78L58.63 53.94C54.35 48.49 48.82 41.94 42.74 35.49C36.67 29.06 30.31 22.98 23.67 17.25C18.39 12.67 12.9 8.38 7.23 4.4C2.9 1.4 0.13 -0.23 0 0.02C-0.3 0.63 10.05 8.46 22.02 19.85C28.01 25.52 34.4 32.03 40.28 38.57L40.27 38.53Z" fill="#505050" fill-opacity="1.000000" fill-rule="nonzero"/>
</svg>
