<svg width="94.976845" height="71.038086" viewBox="0 0 94.9768 71.0381" fill="none" xmlns="http://www.w3.org/2000/svg" xmlns:xlink="http://www.w3.org/1999/xlink">
	<desc>
			Created with Pixso.
	</desc>
	<defs>
		<clipPath id="clip1_42">
			<rect id="Arrow 14" rx="0.000000" width="103.250977" height="14.673841" transform="translate(0.417391 58.595615) rotate(-33.982903)" fill="white" fill-opacity="0"/>
		</clipPath>
	</defs>
	<g clip-path="url(#clip1_42)">
		<path id="Arrow 14" d="M14.69 61.7C21.18 58.19 27.21 54.91 33.28 51.69C33.75 51.47 34.35 51.65 35.67 51.63C33.19 53.7 31.33 55.44 29.29 56.91C23.87 60.76 18.46 64.41 12.95 68.12C12.29 68.57 11.66 69.08 10.91 69.4C8.51 70.53 7 69.9 7.13 67.57C7.21 66.44 7.43 65.32 7.77 64.21C9.08 60.03 10.51 55.85 11.94 51.68C12.17 50.94 12.78 50.24 13.47 49.09C15.93 52.39 12.31 56.19 13.2 59.49C13.86 58.85 14.48 58.33 14.97 57.8C34.15 37.68 56.94 23.1 82.53 12.85C85.18 11.74 87.93 10.96 90.63 10.11C92.02 9.66 93.52 9.72 93.62 11.31C93.8 12.84 92.63 13.63 90.99 14.06C72.45 18.77 56.21 28.84 40.33 39.84C32.04 45.52 24.36 51.77 17.31 58.76C16.45 59.63 15.63 60.57 14.69 61.7Z" fill="#505050" fill-opacity="1.000000" fill-rule="nonzero"/>
	</g>
</svg>
