<svg width="25.375809" height="47.286133" viewBox="0 0 25.3758 47.2861" fill="none" xmlns="http://www.w3.org/2000/svg" xmlns:xlink="http://www.w3.org/1999/xlink">
	<desc>
			Created with Pixso.
	</desc>
	<defs>
		<clipPath id="clip1_49">
			<rect id="Arrow 10" rx="0.000000" width="14.165217" height="44.165218" transform="translate(0.417391 4.022616) rotate(-13.906857)" fill="white" fill-opacity="0"/>
		</clipPath>
	</defs>
	<g clip-path="url(#clip1_49)">
		<path id="Arrow 10" d="M13.75 35.29C13.51 34.35 13.26 33.32 13.02 32.37C11.04 24.08 9.09 15.67 7.11 7.37C6.87 6.43 6.66 5.58 6.49 4.63C6.25 3.39 6.07 1.83 7.23 1.84C7.71 1.83 8.57 3.11 8.84 3.94C10.82 10.84 12.72 17.67 14.64 24.58C15.1 26.17 15.43 27.78 16.42 29.34C16.73 27.26 16.88 25.13 17.27 23.13C17.45 22.19 18.18 21.01 18.8 21.06C20.05 21.15 20.38 23.06 20.28 24.29C20.01 30.35 19.76 36.5 19.13 42.45C18.71 46.25 16.78 46.73 14.64 43.56C11.76 39.38 9.25 34.71 6.65 30.26C6.31 29.74 6.53 28.69 6.47 27.9C7.05 28.06 7.82 27.87 8.22 28.37C9.14 29.34 9.9 30.75 10.74 31.94C11.6 33.23 12.46 34.51 13.3 35.7C13.39 35.48 13.55 35.34 13.75 35.29Z" fill="#505050" fill-opacity="1.000000" fill-rule="nonzero"/>
	</g>
</svg>
